<?xml version="1.0" encoding="UTF-8"?>
<svg version="1.1" xmlns="http://www.w3.org/2000/svg" width="293" height="512">
<path d="M0 0 C1.90130294 -0.00457115 3.80260424 -0.00987947 5.7039032 -0.0158844 C9.67531067 -0.02478083 13.6465167 -0.02243294 17.61791992 -0.01245117 C22.67109049 -0.00097915 27.72356036 -0.02116385 32.77663898 -0.05036831 C36.70011203 -0.06884458 40.62342079 -0.06841503 44.5469265 -0.06273079 C46.4081845 -0.0625789 48.26945459 -0.06851208 50.13067055 -0.08102226 C69.85260762 -0.19491397 86.21314948 3.73121753 101.00390625 17.80859375 C107.48652611 24.95010284 111.8656522 32.29684198 114.70410156 41.49560547 C115.02911573 42.54431525 115.02911573 42.54431525 115.36069584 43.61421108 C117.99512095 52.25179944 120.20059613 60.99721314 122.4140625 69.75 C122.88458021 71.59653976 123.35549691 73.4429779 123.82678223 75.2893219 C125.07464773 80.18281279 126.31720885 85.07763282 127.55793381 89.97293854 C129.61645167 98.09422434 131.67937053 106.21439489 133.7417469 114.33470154 C134.25504029 116.35627545 134.76808531 118.37791244 135.28088188 120.39961243 C138.29821504 132.29436686 141.34820512 144.17898803 144.48643303 156.04244041 C145.64053496 160.41204136 146.78240207 164.78486254 147.92703247 169.1569519 C148.51673063 171.39276623 149.11311511 173.62682969 149.71676636 175.85891724 C157.91614181 206.19220863 157.91614181 206.19220863 151.64453125 219.26171875 C146.09954685 228.83628809 139.23251922 235.34167764 128.38671875 238.43359375 C125.41575095 238.79830429 122.50131873 238.78683353 119.51171875 238.7265625 C118.70178467 238.72231766 117.89185059 238.71807281 117.05737305 238.71369934 C114.50013314 238.69706319 111.94371571 238.65944147 109.38671875 238.62109375 C107.64063648 238.60602735 105.8945417 238.59234239 104.1484375 238.58007812 C99.89422 238.54720941 95.64060825 238.49553435 91.38671875 238.43359375 C91.3956012 239.67672333 91.40448364 240.91985291 91.41363525 242.20065308 C91.49487578 253.94097068 91.55475845 265.68123091 91.59396744 277.42176628 C91.61480314 283.45707836 91.64304772 289.49216271 91.68847656 295.52734375 C91.73207706 301.35639801 91.75588605 307.18523382 91.76622772 313.01443863 C91.77359358 315.2334957 91.78797722 317.45254141 91.80963898 319.67150497 C91.83886128 322.79021383 91.84266684 325.90803078 91.84082031 329.02685547 C91.85520142 329.9353273 91.86958252 330.84379913 91.88439941 331.77980042 C91.82483374 341.13472075 88.72583914 348.87077016 82.3203125 355.67578125 C75.28546149 362.07110035 69.30305734 363.57409792 59.953125 363.64233398 C59.10374863 363.65211777 58.25437225 363.66190155 57.3792572 363.67198181 C54.56926014 363.7018823 51.75931074 363.72331208 48.94921875 363.7421875 C47.9859668 363.74875933 47.02271484 363.75533115 46.03027344 363.76210213 C40.92660999 363.79467989 35.8229672 363.81912897 30.71923828 363.83862305 C26.5115691 363.85639473 22.30457531 363.89115091 18.09716797 363.94116211 C13.00258156 364.00163804 7.90861842 364.03213676 2.81369019 364.04179573 C0.88093816 364.05030849 -1.05179911 364.06902217 -2.98434448 364.09853935 C-15.08185016 364.27329241 -24.85513887 364.05575621 -34.515625 355.80979919 C-41.26170859 348.67926152 -43.2148994 340.5043025 -43.06738281 330.95678711 C-43.06796692 329.9508551 -43.06855103 328.9449231 -43.06915283 327.9085083 C-43.06638599 324.61312266 -43.03535978 321.31866337 -43.00390625 318.0234375 C-42.9964389 315.7270202 -42.9907483 313.4305965 -42.98675537 311.13417053 C-42.97153811 305.11217421 -42.93228969 299.09056842 -42.88793945 293.06872559 C-42.8469025 286.91501141 -42.82872637 280.76123367 -42.80859375 274.60742188 C-42.76579189 262.5493083 -42.69758779 250.4914836 -42.61328125 238.43359375 C-43.68175293 238.45454102 -44.75022461 238.47548828 -45.85107422 238.49707031 C-49.85793376 238.57008696 -53.8647359 238.61561487 -57.87207031 238.65332031 C-59.59840827 238.6732966 -61.32467978 238.70048747 -63.05078125 238.73535156 C-77.12603407 239.01229519 -86.81141406 238.00378546 -97.4140625 227.8671875 C-104.62520587 219.88753861 -106.85753761 211.21049412 -106.78311157 200.64239502 C-106.52607029 195.78581599 -105.46089366 191.30111829 -104.21875 186.61328125 C-103.95963837 185.58830032 -103.70052673 184.5633194 -103.43356323 183.50727844 C-102.56956452 180.1040837 -101.68527197 176.70651498 -100.80078125 173.30859375 C-100.17967062 170.87962928 -99.55983131 168.45033942 -98.94116211 166.02075195 C-97.58810145 160.71912571 -96.22603848 155.41993561 -94.85644531 150.12255859 C-92.66629901 141.65048274 -90.49630938 133.17330426 -88.32859612 124.69546509 C-84.51164959 109.76984213 -80.68887509 94.84568121 -76.8349762 79.92955017 C-76.4677685 78.50813175 -76.10057574 77.08670947 -75.73339844 75.6652832 C-75.55502662 74.97486529 -75.3766548 74.28444738 -75.19287777 73.57310772 C-74.15106754 69.53518464 -73.11973594 65.49477794 -72.09854221 61.45159245 C-71.62066127 59.56104984 -71.13988355 57.67124023 -70.65904236 55.78144836 C-70.08016242 53.50559348 -69.50584516 51.22857046 -68.93727112 48.95011902 C-65.61361845 35.94049664 -60.33946201 25.87171689 -50.61328125 16.43359375 C-49.65808594 15.46486328 -49.65808594 15.46486328 -48.68359375 14.4765625 C-34.86843576 1.32063404 -18.01810923 -0.03815472 0 0 Z " fill="#63B5F6" transform="translate(113.61328125,148.56640625)"/>
<path d="M0 0 C44.22 0 88.44 0 134 0 C134.0825 16.45875 134.165 32.9175 134.25 49.875 C134.28641602 55.05687012 134.32283203 60.23874023 134.36035156 65.57763672 C134.37841797 71.94360352 134.37841797 71.94360352 134.3817749 74.93118286 C134.38788578 77.0016118 134.40188856 79.07202719 134.42230225 81.1423645 C134.45179292 84.2929121 134.45561708 87.44259577 134.45410156 90.59326172 C134.468494 91.50348524 134.48288643 92.41370876 134.497715 93.35151482 C134.43791991 102.7041455 131.33729715 110.43911335 124.93359375 117.2421875 C117.89874274 123.6375066 111.91633859 125.14050417 102.56640625 125.20874023 C101.71702988 125.21852402 100.8676535 125.2283078 99.99253845 125.23838806 C97.18254139 125.26828855 94.37259199 125.28971833 91.5625 125.30859375 C90.59924805 125.31516558 89.63599609 125.3217374 88.64355469 125.32850838 C83.53989124 125.36108614 78.43624845 125.38553522 73.33251953 125.4050293 C69.12485035 125.42280098 64.91785656 125.45755716 60.71044922 125.50756836 C55.61586281 125.56804429 50.52189967 125.59854301 45.42697144 125.60820198 C43.49421941 125.61671474 41.56148214 125.63542842 39.62893677 125.6649456 C27.53143109 125.83969866 17.75814238 125.62216246 8.09765625 117.37620544 C1.35151565 110.24560751 -0.60145039 102.07066738 -0.45410156 92.52319336 C-0.4545837 91.50115342 -0.45506584 90.47911348 -0.45556259 89.42610264 C-0.45259822 86.14698429 -0.42223642 82.86879747 -0.390625 79.58984375 C-0.38473727 77.55375607 -0.38066062 75.51766234 -0.37841797 73.48156738 C-0.35752279 65.96678539 -0.30167761 58.45213336 -0.25 50.9375 C-0.1675 34.128125 -0.085 17.31875 0 0 Z " fill="#1D87E5" transform="translate(71,387)"/>
<path d="M0 0 C1.0098999 0.01087646 2.0197998 0.02175293 3.06030273 0.03295898 C21.93159544 0.43648457 37.58868513 8.10566049 50.73828125 21.609375 C62.71174361 35.46604211 68.28169629 52.43372077 67.84765625 70.64453125 C66.60317723 86.9250445 60.96680959 99.91888067 50.5625 112.375 C49.74845703 113.36113281 49.74845703 113.36113281 48.91796875 114.3671875 C37.52829191 126.88141471 20.77344529 133.44011872 4.1953125 134.61328125 C-16.23389197 135.045525 -33.44857581 128.58984829 -48.4375 114.375 C-60.83063451 101.47914575 -67.06282568 85.18644415 -66.8125 67.4375 C-66.80089844 66.37990479 -66.78929688 65.32230957 -66.77734375 64.23266602 C-66.39305014 45.93209567 -59.56096059 31.14756592 -46.4375 18.375 C-45.55384766 17.44300781 -45.55384766 17.44300781 -44.65234375 16.4921875 C-40.48850399 12.4107094 -35.77551928 9.7566698 -30.625 7.125 C-29.98554443 6.7954834 -29.34608887 6.4659668 -28.68725586 6.12646484 C-19.38959706 1.59073859 -10.30316866 -0.15168289 0 0 Z " fill="#90CAF9" transform="translate(137.4375,-0.375)"/>
</svg>
