<?xml version="1.0" encoding="UTF-8"?>
<svg version="1.1" xmlns="http://www.w3.org/2000/svg" width="217" height="512">
<path d="M0 0 C0.79100098 -0.0049649 1.58200195 -0.00992981 2.39697266 -0.01504517 C5.00676354 -0.02961485 7.61649353 -0.03646192 10.22631836 -0.04199219 C11.57052762 -0.04623325 11.57052762 -0.04623325 12.94189262 -0.05056 C17.68896656 -0.06553577 22.43601026 -0.07477399 27.18310547 -0.07910156 C32.05938617 -0.08456802 36.93538508 -0.10856194 41.8115778 -0.13707352 C45.58396681 -0.1558116 49.35628964 -0.16091152 53.12872124 -0.16243744 C54.92465179 -0.16544193 56.72058179 -0.17339484 58.51646614 -0.18662262 C77.80477768 -0.31849342 94.6563595 3.16663272 109.00366211 17.16113281 C121.16321277 31.04943748 126.48402685 46.22296384 126.40771484 64.56396484 C126.41457809 65.73958984 126.42144135 66.91521484 126.42851257 68.12646484 C126.44666632 71.97408461 126.4429604 75.82129233 126.43725586 79.66894531 C126.43973749 81.68113867 126.44408579 83.69332222 126.44860893 85.70551193 C126.4625886 92.01742376 126.46114607 98.32920004 126.44970703 104.64111328 C126.43821334 111.12603351 126.4523371 117.61054076 126.47910351 124.09540665 C126.50132952 129.69239091 126.50788299 135.28924615 126.50202709 140.88627136 C126.49867494 144.21657754 126.50269237 147.54640807 126.51827812 150.8767128 C126.53321635 154.59048176 126.52248989 158.30334841 126.50537109 162.01708984 C126.51987305 163.64606705 126.51987305 163.64606705 126.53466797 165.30795288 C126.43939506 175.21809108 123.78313628 183.15337534 116.92944336 190.40332031 C111.91494202 194.98045136 107.70490977 197.12626814 101.00366211 198.16113281 C101.00919287 199.2373203 101.00919287 199.2373203 101.01483536 200.33524895 C101.10331269 217.82191426 101.16943301 235.30852245 101.2109108 252.79536247 C101.23150418 261.2520033 101.25956279 269.70849438 101.30541992 278.16503906 C101.34538679 285.53889417 101.37111835 292.91264077 101.38001609 300.28660119 C101.38521425 304.1882732 101.39736374 308.08963492 101.42658234 311.99120712 C101.45390761 315.67007014 101.46207299 319.3484976 101.45609283 323.02745247 C101.45770307 325.00798754 101.47913578 326.98847611 101.50134277 328.96888733 C101.45303642 339.51227884 99.24574707 347.63903072 91.93725586 355.40332031 C84.90240485 361.79863941 78.9200007 363.30163698 69.57006836 363.36987305 C68.72069199 363.37965683 67.87131561 363.38944061 66.99620056 363.39952087 C64.1862035 363.42942137 61.3762541 363.45085114 58.56616211 363.46972656 C57.60291016 363.47629839 56.6396582 363.48287022 55.6472168 363.48964119 C50.54355335 363.52221895 45.43991056 363.54666803 40.33618164 363.56616211 C36.12851246 363.58393379 31.92151867 363.61868997 27.71411133 363.66870117 C22.61952492 363.7291771 17.52556178 363.75967582 12.43063354 363.76933479 C10.49788152 363.77784755 8.56514425 363.79656123 6.63259888 363.82607841 C-5.46490681 364.00083147 -15.23819551 363.78329527 -24.89868164 355.53733826 C-32.76938434 347.2180903 -33.57183139 338.02634685 -33.45043945 327.01245117 C-33.44930923 325.60227491 -33.44994825 324.19209629 -33.45220947 322.78192139 C-33.45335074 318.97864689 -33.42993779 315.17588353 -33.40191364 311.37272716 C-33.37680112 307.38893821 -33.37455026 303.40513579 -33.36981201 299.42127991 C-33.35741103 291.88849116 -33.32462872 284.35593637 -33.28441405 276.82325035 C-33.23960639 268.2428269 -33.21768676 259.6623919 -33.19763231 251.08188045 C-33.15589326 233.44149891 -33.08559762 215.80133472 -32.99633789 198.16113281 C-33.93348633 198.0194165 -34.87063477 197.8777002 -35.83618164 197.73168945 C-43.45730663 196.35571842 -49.33841327 191.57570743 -53.74243164 185.38378906 C-57.91816763 177.98193929 -58.43372997 172.37189314 -58.40039062 163.91455078 C-58.40725388 162.69570694 -58.41411713 161.4768631 -58.42118835 160.22108459 C-58.43631215 156.89203018 -58.43796074 153.56353778 -58.43224597 150.23449087 C-58.42914321 147.44432234 -58.43525928 144.6542038 -58.44128472 141.8640424 C-58.45531331 135.27162358 -58.45378534 128.67933435 -58.44238281 122.08691406 C-58.43093003 115.31644095 -58.4449328 108.54636529 -58.47177929 101.77594459 C-58.49404428 95.93952701 -58.50054875 90.10323317 -58.49470288 84.2667762 C-58.49135447 80.79160369 -58.49360419 77.3166852 -58.5109539 73.84154892 C-58.52950832 69.95557275 -58.51512567 66.07007189 -58.49804688 62.18408203 C-58.50771484 61.05427414 -58.51738281 59.92446625 -58.52734375 58.76042175 C-58.37432146 42.01204148 -51.54041438 27.72208589 -39.91430664 15.89160156 C-28.96178014 5.64285187 -14.93561703 0.02258394 0 0 Z " fill="#63B5F6" transform="translate(82.996337890625,148.8388671875)"/>
<path d="M0 0 C44.22 0 88.44 0 134 0 C134.16121214 34.95616501 134.16121214 34.95616501 134.1953125 49.6328125 C134.21902378 59.7565931 134.24686042 69.88024029 134.30175781 80.00390625 C134.34172468 87.37776135 134.36745624 94.75150796 134.37635398 102.12546837 C134.38155214 106.02714039 134.39370163 109.9285021 134.42292023 113.83007431 C134.4502455 117.50893733 134.45841088 121.18736479 134.45243073 124.86631966 C134.45404097 126.84685472 134.47547367 128.8273433 134.49768066 130.80775452 C134.44937432 141.35114603 132.24208496 149.47789791 124.93359375 157.2421875 C117.89874274 163.6375066 111.91633859 165.14050417 102.56640625 165.20874023 C101.29234169 165.22341591 101.29234169 165.22341591 99.99253845 165.23838806 C97.18254139 165.26828855 94.37259199 165.28971833 91.5625 165.30859375 C90.59924805 165.31516558 89.63599609 165.3217374 88.64355469 165.32850838 C83.53989124 165.36108614 78.43624845 165.38553522 73.33251953 165.4050293 C69.12485035 165.42280098 64.91785656 165.45755716 60.71044922 165.50756836 C55.61586281 165.56804429 50.52189967 165.59854301 45.42697144 165.60820198 C43.49421941 165.61671474 41.56148214 165.63542842 39.62893677 165.6649456 C27.53143109 165.83969866 17.75814238 165.62216246 8.09765625 157.37620544 C0.22695355 149.05695749 -0.5754935 139.86521404 -0.45410156 128.85131836 C-0.45297134 127.44114209 -0.45361036 126.03096348 -0.45587158 124.62078857 C-0.45701285 120.81751408 -0.4335999 117.01475072 -0.40557575 113.21159434 C-0.38046323 109.2278054 -0.37821237 105.24400298 -0.37347412 101.26014709 C-0.36107314 93.72735835 -0.32829083 86.19480356 -0.28807616 78.66211754 C-0.23487986 68.47531602 -0.21338971 58.2884499 -0.19006729 48.10154438 C-0.15252705 32.06752123 -0.07281742 16.03399164 0 0 Z " fill="#1D87E5" transform="translate(50,347)"/>
<path d="M0 0 C1.0098999 0.01087646 2.0197998 0.02175293 3.06030273 0.03295898 C21.93159544 0.43648457 37.58868513 8.10566049 50.73828125 21.609375 C62.71174361 35.46604211 68.28169629 52.43372077 67.84765625 70.64453125 C66.60317723 86.9250445 60.96680959 99.91888067 50.5625 112.375 C49.74845703 113.36113281 49.74845703 113.36113281 48.91796875 114.3671875 C37.52829191 126.88141471 20.77344529 133.44011872 4.1953125 134.61328125 C-16.23389197 135.045525 -33.44857581 128.58984829 -48.4375 114.375 C-60.83063451 101.47914575 -67.06282568 85.18644415 -66.8125 67.4375 C-66.80089844 66.37990479 -66.78929687 65.32230957 -66.77734375 64.23266602 C-66.39305014 45.93209567 -59.56096059 31.14756592 -46.4375 18.375 C-45.55384766 17.44300781 -45.55384766 17.44300781 -44.65234375 16.4921875 C-40.48850399 12.4107094 -35.77551928 9.7566698 -30.625 7.125 C-29.98554443 6.7954834 -29.34608887 6.4659668 -28.68725586 6.12646484 C-19.38959706 1.59073859 -10.30316866 -0.15168289 0 0 Z " fill="#90CAF9" transform="translate(116.4375,-0.375)"/>
</svg>
